<?xml version="1.0" standalone="no"?>
<!DOCTYPE svg PUBLIC "-//W3C//DTD SVG 20010904//EN"
 "http://www.w3.org/TR/2001/REC-SVG-20010904/DTD/svg10.dtd">
<svg version="1.0" xmlns="http://www.w3.org/2000/svg"
 width="2487.000000pt" height="4096.000000pt" viewBox="0 0 2487.000000 4096.000000"
 preserveAspectRatio="xMidYMid meet">

<g transform="translate(0.000000,4096.000000) scale(0.100000,-0.100000)"
fill="#000000" stroke="none">
<path d="M5711 34621 c-38 -10 -47 -34 -33 -83 7 -24 23 -83 36 -133 14 -49
30 -103 36 -120 7 -16 12 -44 11 -62 0 -18 6 -51 14 -74 22 -63 65 -323 65
-398 0 -36 5 -84 10 -106 5 -22 18 -113 30 -203 11 -90 28 -200 36 -245 9 -45
22 -143 29 -217 7 -74 17 -146 22 -160 6 -14 16 -77 23 -140 7 -63 17 -123 22
-132 11 -23 30 -310 34 -513 3 -201 9 -258 36 -333 12 -35 23 -102 28 -172 10
-141 40 -290 85 -424 18 -56 54 -193 79 -306 51 -229 115 -463 147 -536 23
-54 25 -64 38 -244 11 -145 30 -217 71 -263 16 -18 32 -46 35 -63 4 -16 20
-69 37 -119 17 -49 37 -126 44 -170 8 -43 39 -165 69 -270 37 -130 59 -231 70
-320 9 -71 24 -179 35 -240 10 -60 24 -153 31 -205 12 -104 102 -514 174 -790
24 -96 54 -224 66 -285 11 -60 27 -137 36 -170 9 -33 17 -105 18 -160 2 -55 6
-121 10 -146 14 -93 17 -116 21 -184 3 -38 12 -84 20 -102 7 -17 14 -47 14
-67 0 -19 5 -69 11 -111 6 -42 9 -78 6 -82 -4 -3 -120 -9 -259 -14 -139 -4
-374 -13 -523 -19 -635 -25 -926 -35 -1845 -60 -438 -12 -972 -36 -1105 -50
-49 -5 -236 -16 -415 -25 -392 -19 -650 -47 -696 -76 -52 -32 -60 -84 -19
-124 29 -30 54 -31 103 -6 29 15 69 20 182 25 221 10 459 25 740 46 430 33
634 41 1800 76 289 8 620 19 735 24 673 29 1300 41 1367 27 30 -6 38 -13 43
-38 4 -16 17 -42 29 -57 33 -39 59 -93 96 -202 17 -52 54 -142 81 -199 35 -75
49 -116 49 -147 0 -37 -3 -44 -19 -44 -11 0 -23 -5 -26 -10 -10 -16 -63 -36
-340 -127 -143 -47 -271 -94 -285 -103 -14 -10 -41 -21 -60 -25 -66 -14 -285
-83 -330 -104 -25 -11 -51 -21 -58 -21 -7 0 -68 -21 -135 -46 -67 -26 -183
-68 -257 -94 -373 -132 -457 -164 -477 -183 -51 -46 -12 -137 58 -137 18 0 52
11 75 25 24 14 83 39 131 55 175 58 339 118 398 145 33 15 92 37 130 50 39 13
180 61 315 108 340 118 427 148 645 217 105 33 207 69 228 80 62 34 92 27 151
-32 50 -50 261 -323 335 -433 19 -27 59 -81 91 -120 92 -114 180 -242 180
-261 0 -10 14 -33 32 -51 17 -18 30 -34 27 -37 -2 -2 -32 -18 -67 -35 -82 -41
-191 -107 -222 -135 -14 -12 -56 -42 -95 -65 -115 -69 -137 -86 -480 -366 -33
-27 -93 -76 -132 -107 -40 -32 -75 -63 -78 -68 -17 -27 -266 -215 -312 -235
-65 -29 -91 -71 -72 -116 6 -17 20 -34 30 -39 50 -28 211 8 257 57 12 13 22
34 22 47 0 16 21 40 74 82 40 32 121 100 179 149 58 50 144 122 193 160 48 39
117 95 153 126 36 31 118 90 181 132 63 42 129 88 145 101 79 63 333 196 375
196 10 0 39 -17 150 -89 30 -20 100 -72 155 -116 304 -243 488 -362 675 -435
126 -49 313 -152 465 -256 95 -65 229 -144 385 -229 52 -29 165 -95 250 -146
170 -104 363 -200 625 -310 190 -80 565 -229 665 -264 36 -13 92 -35 124 -50
56 -27 58 -28 36 -40 -20 -10 -20 -13 -5 -18 9 -4 32 -7 51 -7 18 0 51 -7 71
-15 46 -17 181 -38 243 -38 71 1 191 20 232 37 21 9 52 16 70 16 46 0 67 14
42 28 -16 9 -10 14 41 37 33 15 89 37 125 50 202 71 834 331 950 391 47 24
114 57 150 75 36 17 142 77 235 133 94 57 206 122 250 146 116 63 253 145 395
239 69 45 190 114 270 153 356 173 430 212 505 267 44 33 109 81 145 108 36
26 103 79 150 118 117 98 295 215 325 215 7 0 41 -13 76 -29 35 -15 78 -31 94
-35 17 -4 39 -16 50 -26 11 -9 32 -24 47 -31 15 -8 51 -33 80 -57 29 -23 116
-83 192 -133 77 -50 146 -99 155 -109 21 -24 154 -135 215 -180 26 -19 100
-82 165 -139 64 -57 137 -120 163 -138 31 -23 55 -50 68 -79 15 -35 28 -48 57
-59 21 -8 51 -22 66 -30 32 -17 119 -20 146 -5 10 5 24 23 31 39 19 46 -3 80
-75 116 -57 29 -190 132 -400 310 -277 235 -515 420 -615 477 -30 17 -66 41
-80 53 -32 28 -185 120 -245 146 -25 11 -45 24 -43 29 3 8 132 151 233 259 33
35 139 143 236 240 165 165 189 195 346 420 2 3 117 -33 488 -154 39 -13 189
-64 335 -115 146 -50 303 -105 350 -121 47 -16 99 -36 115 -43 17 -8 75 -30
130 -50 55 -20 123 -45 150 -56 28 -10 93 -33 145 -51 52 -17 113 -42 136 -55
22 -13 55 -24 73 -24 70 0 109 91 59 137 -18 17 -383 154 -498 188 -14 4 -77
28 -140 52 -125 49 -228 86 -445 158 -77 25 -158 52 -180 60 -69 24 -599 206
-617 212 -24 7 -23 14 11 81 15 31 34 75 41 97 7 22 35 83 61 136 27 53 53
116 58 140 13 53 49 149 63 167 6 6 8 12 5 12 -3 0 1 19 8 43 7 26 21 47 36
55 27 14 212 11 844 -13 598 -23 947 -34 1520 -50 674 -19 1231 -44 1465 -65
135 -12 523 -37 715 -45 118 -6 157 -11 187 -26 20 -10 47 -19 58 -19 29 0 70
44 70 74 0 70 -44 94 -192 106 -62 6 -151 14 -198 20 -47 5 -236 17 -420 25
-184 8 -375 20 -425 25 -179 19 -642 40 -1210 55 -551 14 -1097 33 -1615 55
-129 6 -356 13 -503 17 -266 6 -268 6 -263 27 8 26 59 243 93 391 45 198 73
339 78 385 3 25 9 65 15 90 14 65 24 124 22 133 -1 4 2 26 7 50 6 23 28 168
50 322 42 293 65 567 55 663 -5 40 3 112 24 242 17 102 38 239 46 306 9 66 23
138 31 160 25 70 86 301 97 371 6 37 23 104 39 148 15 44 33 102 39 129 6 28
23 64 40 83 48 55 70 159 84 414 2 20 14 65 29 100 35 86 88 282 143 529 25
113 61 251 80 306 43 128 84 336 84 431 0 48 8 98 24 150 33 105 37 138 41
348 4 216 21 480 34 515 5 14 14 72 21 130 6 58 18 125 25 150 8 25 17 97 21
160 3 63 10 125 15 137 4 11 17 88 29 170 11 81 28 195 36 253 9 58 20 157 24
220 9 125 44 322 66 376 8 18 14 51 14 73 0 22 5 52 11 68 6 15 24 73 40 128
15 55 33 119 40 142 10 34 10 44 0 57 -27 32 -251 12 -314 -28 -12 -8 -40 -18
-62 -22 -22 -4 -76 -19 -120 -35 -44 -15 -109 -35 -145 -44 -36 -9 -117 -35
-180 -57 -63 -21 -135 -46 -160 -54 -25 -8 -67 -26 -95 -39 -27 -14 -70 -30
-95 -36 -25 -6 -55 -17 -67 -25 -12 -8 -100 -40 -195 -73 -194 -66 -483 -174
-512 -192 -11 -6 -51 -23 -90 -37 -39 -13 -100 -35 -136 -48 -36 -13 -73 -24
-84 -24 -10 0 -70 -25 -133 -55 -63 -30 -118 -55 -122 -55 -3 0 -33 -13 -66
-29 -33 -16 -80 -36 -105 -44 -25 -8 -92 -36 -150 -62 -58 -26 -134 -57 -170
-70 -36 -12 -104 -41 -152 -63 -48 -22 -147 -59 -220 -82 -73 -22 -164 -56
-203 -75 -38 -19 -106 -49 -150 -68 -58 -24 -83 -40 -93 -59 -6 -14 -24 -29
-39 -33 -15 -3 -74 -26 -132 -50 -58 -24 -177 -71 -265 -105 -87 -34 -177 -70
-200 -80 -233 -106 -380 -170 -466 -202 -30 -11 -145 -64 -255 -117 -258 -126
-260 -127 -291 -112 -14 6 -39 11 -57 11 -18 0 -99 9 -182 20 -427 57 -480 59
-1130 56 -595 -3 -685 -8 -1037 -61 -54 -8 -113 -15 -132 -15 -19 0 -46 -5
-60 -11 -31 -14 -45 -9 -289 110 -169 83 -241 115 -404 177 -34 13 -95 40
-135 60 -40 20 -104 50 -143 66 -147 62 -321 131 -355 140 -19 6 -53 18 -75
28 -121 54 -183 79 -207 85 -16 4 -34 19 -40 32 -9 17 -36 35 -83 56 -38 16
-99 43 -135 59 -72 33 -202 81 -295 109 -33 9 -107 38 -165 64 -58 25 -140 57
-182 71 -43 14 -80 29 -83 34 -3 5 -29 16 -58 26 -28 9 -70 27 -92 39 -22 12
-61 28 -87 34 -26 6 -64 22 -84 36 -20 14 -42 25 -48 25 -6 0 -31 11 -56 24
-80 42 -173 78 -255 98 -44 10 -89 25 -100 32 -11 7 -45 21 -75 31 -30 9 -66
24 -79 32 -13 8 -53 25 -90 38 -36 13 -111 42 -166 65 -55 23 -147 58 -205 77
-106 35 -290 105 -390 148 -72 30 -364 128 -460 153 -41 11 -135 41 -208 67
-73 25 -157 53 -188 61 -57 14 -151 17 -193 5z m12638 -820 c50 -97 96 -318
111 -522 10 -138 32 -300 55 -409 8 -36 19 -96 25 -135 6 -38 15 -86 20 -105
19 -72 51 -300 61 -425 26 -357 -8 -792 -81 -1022 -17 -51 -36 -121 -43 -155
-8 -35 -28 -117 -45 -183 -16 -66 -40 -163 -52 -215 -27 -118 -62 -234 -99
-325 -20 -48 -30 -96 -35 -155 -8 -113 -17 -161 -27 -154 -5 3 -9 -7 -9 -22 0
-35 -36 -167 -60 -219 -34 -75 -81 -230 -101 -330 -21 -106 -71 -299 -94 -364
-7 -21 -20 -92 -29 -157 -9 -66 -28 -193 -43 -284 -20 -131 -24 -186 -20 -265
8 -147 -9 -385 -43 -600 -17 -104 -38 -235 -46 -290 -23 -146 -134 -564 -165
-627 -5 -9 -36 -123 -69 -253 -33 -131 -68 -256 -78 -278 l-18 -42 -260 3
c-142 2 -358 7 -479 13 -121 5 -305 9 -410 9 -190 0 -371 12 -475 30 -486 86
-641 102 -1055 109 -198 3 -378 4 -400 1 -31 -4 -44 -12 -63 -40 -12 -19 -22
-45 -20 -59 5 -37 51 -66 101 -62 23 1 184 3 357 3 329 -1 473 -12 780 -62
384 -62 581 -79 703 -60 92 14 286 8 348 -11 40 -12 680 -31 757 -22 62 7 92
-12 92 -59 0 -37 -40 -157 -92 -273 -22 -49 -47 -112 -55 -140 -8 -27 -26 -70
-39 -95 -13 -25 -28 -57 -34 -73 -5 -15 -17 -30 -26 -34 -19 -7 -111 17 -215
57 -42 16 -103 33 -137 39 -34 5 -74 19 -89 30 -15 11 -57 25 -91 30 -35 6
-69 15 -76 20 -12 10 -84 28 -207 51 -59 10 -70 10 -93 -5 -20 -14 -26 -25
-26 -55 0 -21 6 -42 13 -48 12 -10 275 -89 492 -147 240 -64 280 -77 291 -91
6 -8 25 -19 42 -25 31 -11 31 -11 16 -41 -32 -61 -119 -175 -190 -249 -41 -42
-74 -81 -74 -86 0 -5 -30 -34 -66 -63 -36 -29 -102 -94 -145 -144 -44 -50 -96
-110 -117 -132 -61 -68 -201 -194 -215 -194 -16 0 -130 74 -188 122 -24 21
-67 52 -96 70 -76 48 -171 116 -212 152 -62 55 -144 105 -220 136 -41 17 -104
50 -141 75 -101 67 -240 96 -282 58 -22 -19 -24 -70 -3 -99 8 -13 39 -28 77
-39 35 -9 104 -41 153 -70 50 -29 113 -60 140 -70 28 -10 59 -26 70 -35 11
-10 31 -23 45 -30 14 -7 48 -32 75 -55 28 -24 91 -69 140 -101 50 -32 118 -84
153 -116 34 -32 81 -67 102 -78 22 -11 40 -22 40 -24 0 -2 -19 -16 -42 -31
-24 -16 -67 -51 -95 -79 -89 -87 -123 -116 -135 -116 -19 0 -142 -87 -197
-140 -59 -58 -136 -110 -161 -110 -9 0 -40 -16 -70 -35 -30 -19 -62 -35 -70
-35 -8 0 -76 -30 -150 -66 -275 -135 -283 -139 -465 -259 -75 -50 -194 -120
-345 -205 -36 -20 -112 -66 -170 -102 -58 -36 -125 -77 -150 -91 -89 -50 -416
-210 -465 -227 -28 -9 -73 -29 -100 -42 -28 -14 -61 -29 -75 -33 -27 -8 -154
-62 -237 -101 -28 -14 -105 -42 -170 -63 -65 -22 -176 -63 -247 -91 -155 -63
-336 -120 -381 -120 -37 0 -241 60 -318 94 -29 13 -70 26 -92 30 -21 4 -51 16
-66 26 -14 11 -57 28 -95 39 -68 19 -130 43 -229 87 -125 56 -212 93 -235 99
-14 4 -50 20 -80 35 -30 15 -73 33 -95 40 -38 12 -349 165 -488 240 -64 34
-83 46 -162 100 -38 26 -107 66 -295 170 -47 26 -147 89 -223 140 -128 85
-417 239 -546 290 -30 11 -66 29 -80 39 -14 10 -47 28 -73 39 -48 21 -115 64
-159 101 -89 76 -169 136 -199 150 -19 9 -60 40 -90 69 -30 30 -84 74 -120
100 -36 25 -69 49 -74 53 -4 4 10 17 32 28 21 11 71 49 110 85 39 35 81 70 94
77 51 26 136 85 188 129 30 26 66 53 80 60 14 7 34 20 45 30 11 9 43 25 70 35
28 10 91 41 140 70 50 29 116 60 148 69 70 20 97 45 97 88 0 47 -24 68 -80 68
-68 0 -145 -26 -226 -76 -39 -25 -99 -55 -132 -68 -33 -13 -81 -39 -107 -57
-26 -19 -58 -41 -70 -49 -12 -8 -45 -33 -72 -55 -76 -61 -166 -123 -205 -143
-19 -10 -54 -36 -77 -57 -49 -46 -169 -125 -189 -125 -19 0 -214 189 -236 228
-11 19 -50 69 -154 195 -39 48 -84 111 -98 140 -15 28 -60 106 -100 174 -40
67 -82 140 -93 161 l-20 39 92 36 c51 19 130 45 177 57 46 12 92 26 102 31 9
5 84 27 165 48 197 52 199 53 206 93 3 22 -1 39 -12 52 -14 17 -26 18 -113 13
-63 -4 -123 -15 -170 -31 -40 -13 -94 -27 -120 -31 -26 -3 -68 -17 -93 -31
-25 -13 -56 -24 -67 -24 -12 0 -68 -16 -126 -36 -57 -19 -111 -33 -119 -30
-26 10 -295 617 -280 632 4 4 93 8 199 11 688 13 1073 24 1138 33 41 6 140 17
220 25 80 7 217 26 305 40 294 47 422 57 745 58 168 1 318 -2 333 -7 41 -12
112 17 126 53 15 34 2 72 -31 95 -19 14 -65 16 -343 16 -452 -1 -601 -14
-1075 -96 -200 -35 -214 -36 -600 -45 -217 -5 -548 -13 -735 -18 -252 -7 -343
-6 -351 3 -16 16 -38 89 -78 261 -44 187 -60 281 -81 465 -27 231 -62 434 -95
538 -16 54 -41 149 -54 212 -41 191 -75 339 -101 447 -14 56 -25 129 -25 161
0 32 -13 139 -29 238 -16 98 -37 235 -46 304 -10 73 -31 167 -50 225 -29 88
-48 161 -84 325 -28 127 -72 268 -92 295 -12 16 -59 198 -59 228 0 16 -5 26
-12 25 -8 -2 -15 36 -23 122 -7 69 -17 135 -23 145 -37 71 -100 289 -137 475
-21 108 -83 349 -115 445 -38 116 -70 302 -70 407 -1 46 -6 128 -13 183 -13
110 -13 237 2 422 11 150 13 161 62 403 64 310 87 468 99 680 12 193 51 382
106 506 22 50 26 54 58 54 18 0 76 -9 127 -19 52 -10 119 -22 149 -26 30 -4
96 -15 145 -25 50 -10 135 -23 190 -29 55 -6 145 -22 200 -36 55 -13 164 -38
243 -54 137 -29 219 -55 647 -207 105 -36 235 -79 290 -94 250 -68 338 -94
532 -161 115 -39 243 -82 285 -95 43 -13 90 -30 105 -37 15 -8 44 -19 63 -25
19 -6 85 -32 145 -57 61 -26 144 -59 185 -75 146 -54 227 -88 360 -150 151
-70 319 -142 395 -169 68 -25 180 -79 300 -146 54 -30 105 -55 112 -55 8 0 31
-9 53 -20 58 -29 105 -26 138 9 25 27 39 31 187 55 262 42 698 67 790 46 66
-16 373 -15 435 1 57 14 463 -2 645 -26 250 -33 308 -46 343 -76 18 -16 44
-29 59 -29 25 0 138 36 158 51 23 16 342 177 365 184 49 15 303 124 470 203
47 22 132 58 190 80 258 100 477 186 505 198 28 12 120 44 370 128 160 54 508
159 570 171 36 8 175 55 415 140 295 106 351 123 480 150 69 15 177 39 240 55
63 16 162 34 220 40 58 6 137 18 175 25 39 8 126 24 195 35 69 11 150 26 180
33 75 17 97 12 119 -32z"/>
<path d="M10310 31639 c-41 -5 -136 -18 -210 -30 -354 -56 -408 -67 -436 -88
-16 -11 -105 -47 -199 -80 -192 -66 -213 -75 -345 -147 -52 -29 -118 -59 -147
-67 -82 -25 -229 -85 -343 -142 -58 -29 -121 -57 -140 -64 -111 -35 -263 -115
-345 -180 -27 -22 -76 -54 -108 -72 -35 -20 -101 -76 -167 -141 -60 -60 -137
-132 -172 -159 -81 -65 -271 -233 -371 -329 -110 -105 -217 -272 -217 -338 0
-33 45 -82 76 -82 28 0 51 29 116 140 68 115 204 252 453 453 55 45 152 131
215 193 163 158 368 294 539 356 31 11 124 53 206 93 83 40 175 80 206 89 98
29 212 76 274 115 121 76 362 165 591 220 45 10 92 24 104 31 12 7 118 28 234
47 195 32 230 35 461 38 138 1 260 5 271 9 43 13 58 92 24 126 -19 19 -32 20
-257 19 -131 -1 -272 -5 -313 -10z"/>
<path d="M13987 31632 c-24 -27 -21 -76 6 -108 l23 -27 280 -2 c255 -2 290 -4
404 -28 69 -14 150 -28 180 -32 30 -4 71 -14 90 -21 19 -8 79 -26 135 -40 55
-13 117 -31 138 -39 21 -9 68 -24 105 -34 116 -34 234 -85 327 -143 33 -20
116 -57 185 -82 194 -72 228 -85 340 -141 58 -29 123 -58 145 -65 73 -24 303
-145 325 -171 3 -3 37 -28 75 -56 39 -27 115 -94 170 -148 55 -54 129 -122
165 -150 36 -29 103 -87 150 -129 47 -42 113 -99 146 -126 80 -65 140 -137
194 -230 75 -132 82 -140 117 -140 38 0 73 39 73 82 0 66 -107 233 -217 338
-100 96 -290 264 -371 329 -35 27 -112 99 -171 158 -63 63 -131 121 -162 138
-29 16 -84 51 -121 79 -100 76 -141 99 -273 150 -66 26 -169 72 -230 102 -127
63 -211 97 -310 126 -68 20 -131 51 -226 110 -25 15 -113 53 -194 83 -96 35
-157 63 -171 79 -25 26 -76 39 -274 71 -58 9 -154 26 -215 36 -207 37 -355 49
-591 49 -211 0 -232 -2 -247 -18z"/>
<path d="M17065 29073 c-65 -5 -224 -31 -315 -53 -47 -11 -125 -28 -175 -39
-49 -10 -148 -35 -220 -56 -71 -20 -179 -49 -238 -65 -59 -16 -172 -51 -250
-79 -78 -27 -191 -65 -252 -85 -60 -19 -132 -42 -160 -51 -27 -9 -87 -27 -132
-41 -45 -13 -124 -42 -175 -65 -51 -22 -124 -52 -163 -66 -101 -36 -307 -137
-373 -182 -31 -21 -104 -66 -161 -100 -153 -92 -190 -122 -371 -307 -108 -111
-206 -200 -285 -259 -127 -96 -347 -299 -405 -374 -20 -25 -55 -66 -78 -91
-23 -25 -71 -88 -106 -140 -59 -89 -194 -244 -290 -335 -24 -22 -45 -45 -47
-52 -3 -10 -22 -9 -84 2 -44 8 -163 19 -265 25 -477 28 -449 25 -476 51 -14
13 -51 62 -81 109 -31 47 -72 109 -92 139 -20 30 -74 93 -120 140 -46 47 -106
112 -133 144 -26 32 -69 77 -96 99 -141 122 -389 363 -478 464 -34 39 -99 96
-145 128 -46 31 -104 72 -129 90 -25 18 -65 45 -90 58 -48 27 -92 54 -170 106
-27 17 -53 32 -57 32 -5 0 -53 29 -106 64 -54 35 -142 80 -195 101 -53 21
-122 48 -152 60 -30 12 -70 26 -88 30 -18 4 -72 25 -119 46 -47 22 -129 55
-182 74 -53 18 -145 53 -206 78 -60 24 -135 50 -165 57 -30 6 -77 21 -105 32
-126 50 -283 84 -449 98 -66 6 -157 17 -201 25 -140 25 -383 46 -603 52 -212
6 -213 6 -237 -17 -32 -30 -33 -79 -4 -106 17 -16 39 -19 152 -20 73 -2 238
-14 367 -29 129 -14 294 -30 365 -34 253 -17 568 -100 962 -252 84 -33 160
-59 170 -59 10 0 33 -9 52 -21 19 -11 120 -54 225 -95 261 -101 317 -131 701
-375 147 -94 221 -154 375 -309 91 -91 251 -248 356 -350 273 -265 355 -357
435 -488 60 -100 67 -116 58 -139 -5 -15 -8 -32 -5 -39 3 -7 -2 -20 -9 -31
-18 -23 -18 -47 -1 -86 8 -18 17 -44 20 -58 3 -15 61 -82 138 -160 73 -74 175
-180 226 -236 l92 -101 0 -194 c0 -106 5 -309 10 -451 9 -243 9 -261 -9 -305
-10 -26 -26 -86 -35 -134 -9 -48 -36 -134 -59 -190 -24 -57 -51 -124 -60 -149
-27 -71 -116 -171 -195 -218 -150 -90 -332 -107 -597 -57 -82 16 -166 36 -185
46 -19 10 -64 27 -100 38 -69 21 -82 28 -250 128 -156 92 -250 97 -250 12 0
-39 26 -63 140 -130 212 -124 418 -204 650 -253 116 -25 319 -31 417 -12 99
19 241 80 317 136 84 62 161 165 205 271 41 100 96 220 101 220 6 -1 84 -122
135 -210 53 -91 96 -142 176 -207 59 -47 89 -62 196 -100 112 -39 143 -45 258
-53 85 -7 199 -6 330 0 199 11 200 11 335 57 195 66 265 100 345 173 39 34 76
69 83 78 19 25 14 66 -12 91 l-24 23 -57 -19 c-38 -12 -72 -33 -105 -64 -72
-69 -308 -162 -490 -195 -89 -16 -299 -18 -390 -4 -92 15 -297 78 -341 106
-50 31 -118 112 -177 209 -26 44 -80 132 -119 195 l-71 116 -8 495 -7 496 49
33 c27 18 112 96 189 174 101 102 172 163 256 221 64 44 126 95 138 112 36 56
24 164 -21 178 -10 4 -18 9 -18 13 0 4 23 32 51 62 63 69 177 212 232 289 136
191 323 382 525 533 102 77 245 208 352 323 123 132 156 157 408 312 234 144
578 290 927 393 77 23 190 59 250 80 297 105 341 119 442 140 48 10 140 34
203 53 274 83 524 127 726 127 138 0 154 2 178 21 32 25 35 75 8 109 -17 21
-27 23 -143 24 -68 1 -142 0 -164 -1z"/>
</g>
</svg>
